<?xml version="1.0" standalone="no"?>
<!DOCTYPE svg PUBLIC "-//W3C//DTD SVG 20010904//EN"
 "http://www.w3.org/TR/2001/REC-SVG-20010904/DTD/svg10.dtd">
<svg version="1.0" xmlns="http://www.w3.org/2000/svg"
 width="512.000000pt" height="512.000000pt" viewBox="0 0 512.000000 512.000000"
 preserveAspectRatio="xMidYMid meet">
<metadata>
Created by potrace 1.11, written by Peter Selinger 2001-2013
</metadata>
<g transform="translate(0.000000,512.000000) scale(0.100000,-0.100000)"
fill="#000000" stroke="none">
<path d="M970 5102 c-19 -10 -44 -31 -55 -46 -19 -26 -20 -46 -26 -354 -5
-301 -7 -332 -27 -393 -41 -124 -125 -233 -236 -307 -86 -57 -180 -89 -298
-101 -64 -6 -94 -14 -118 -31 -54 -39 -60 -67 -60 -288 0 -190 1 -201 23 -233
64 -96 206 -88 256 14 17 35 21 62 21 140 l0 97 2110 0 2110 0 0 -97 c0 -76 4
-105 20 -138 50 -103 193 -112 257 -16 22 32 23 43 23 233 0 221 -6 249 -60
288 -24 17 -54 25 -123 32 -201 20 -351 107 -456 263 -89 133 -94 160 -100
530 -7 360 -8 368 -83 406 -49 25 -94 24 -142 -4 -66 -37 -76 -69 -76 -239 l0
-148 -1369 0 -1370 0 -3 154 c-3 138 -5 158 -24 182 -51 69 -130 91 -194 56z"/>
<path d="M890 3098 c0 -224 -10 -289 -60 -392 -43 -90 -115 -173 -200 -231
-88 -60 -181 -92 -302 -104 -64 -6 -94 -14 -118 -31 -54 -39 -60 -67 -60 -288
0 -190 1 -201 23 -233 64 -96 201 -90 254 11 19 36 23 58 23 142 l0 98 2110 0
2110 0 0 -97 c0 -118 19 -168 79 -201 73 -41 158 -20 201 50 18 30 20 51 20
233 0 175 -2 205 -18 235 -23 43 -90 80 -147 80 -66 0 -168 26 -238 60 -141
69 -250 191 -304 340 -26 72 -28 85 -31 303 l-4 227 -1669 0 -1669 0 0 -202z"/>
<path d="M910 1580 l0 -190 -232 0 c-215 0 -236 -2 -266 -20 -63 -39 -72 -67
-72 -232 l0 -148 2220 0 2220 0 0 148 c0 165 -9 193 -72 232 -30 18 -51 20
-260 20 l-228 0 0 190 0 190 -305 0 -305 0 0 -153 c0 -125 -3 -157 -16 -176
-48 -68 -220 -68 -268 0 -13 19 -16 51 -16 176 l0 153 -300 0 -300 0 0 -153
c0 -125 -3 -157 -16 -176 -48 -68 -220 -68 -268 0 -13 19 -16 51 -16 176 l0
153 -300 0 -300 0 0 -153 c0 -125 -3 -157 -16 -176 -48 -68 -220 -68 -268 0
-13 19 -16 51 -16 176 l0 153 -300 0 -300 0 0 -190z"/>
<path d="M69 667 c-66 -44 -69 -58 -69 -379 l0 -288 2560 0 2560 0 0 288 c0
321 -3 335 -69 379 l-34 23 -2457 0 -2457 0 -34 -23z"/>
</g>
</svg>
